<svg height="24" viewBox="0 0 24 24" width="24" xmlns="http://www.w3.org/2000/svg"><path d="m17.3529412 19c1.4619302 0 2.6470588-1.2125621 2.6470588-2.7083333s-2-3.2916667-5.1666667-1.3541667c-.0425394-.1995806 3.8333334-1.625 2.1666667-4.0625-1.6666667-2.43749997-4 .875-3-1.875 1.6666667-3.25-2.3333333 2.6875-4.83333333-3-1.513201 1.6249999 1.97359803 3.25000004-1.513201 4.875-3.486799 1.625-1.65346567 3.125.67986766 4.0625-2.65346567 0-3.33333333 1.2597636-3.33333333 2.2569444s.88235294 1.8055556 2.65346562 1.8055556zm-.3614609-10.72404601c.6491819.31000971 1.2056235.80641854 1.6594803 1.47018408.6590532.96386533.8880798 1.89384773.7844417 2.75981963 1.5286012.6243596 2.5645977 1.9880252 2.5645977 3.785709 0 2.5902266-2.0701858 4.7083333-4.6470588 4.7083333h-9.69947558c-2.66178878 0-4.65346562-1.4723902-4.65346562-3.8055556 0-1.1327904.41344705-2.1139399 1.17566967-2.8478751-.06903847-.1158087-.13156257-.2353913-.18742525-.3590328-.92573634-2.0489442.33754676-3.768228 2.82037809-4.92533543.16232268-.07564943.28671865-.14199519.37777393-.19560088-.01599562-.04676679-.03489647-.10101832-.05717042-.16399642-.25006618-.70704557-.34619861-1.0586989-.36441272-1.61985739-.02913281-.89755254.28228561-1.74135306.93818673-2.44571373l2.07144785-2.22449136 1.22314542 2.7826558c.3370143.76670762.6580324 1.17536945.9190287 1.33610309.1637864.10086731.3728191.0870897.8270821-.10160304.0978704-.0406536.4596221-.2042357.5263541-.23258415.1629082-.06920509.3025008-.12059581.4674138-.1630385.4426229-.11391525.8743734-.13193364 1.402958.09464502.8345329.35772385 1.24079 1.1189851 1.2536397 1.8845974.1957549.08915105.3939041.16545478.5974106.26263708zm-2.9914803-4.27595399c-.5522847 0-1-.44771525-1-1s.4477153-1 1-1 1 .44771525 1 1-.4477153 1-1 1zm-10 3c-.55228475 0-1-.44771525-1-1s.44771525-1 1-1 1 .44771525 1 1-.44771525 1-1 1zm16 1c-.5522847 0-1-.44771525-1-1s.4477153-1 1-1 1 .44771525 1 1-.4477153 1-1 1z" fill="#4a4a4a"/></svg>